<svg width="120" height="120" viewBox="0 0 149 49" fill="none" xmlns="http://www.w3.org/2000/svg">
<rect x="1.5" y="1.5" width="146" height="46" rx="23" stroke="#FF5733" stroke-width="3"/>
<path d="M25.264 32L22.368 19.04H24.064L26.112 28.592L28.064 19.04H29.712L26.848 32H25.264ZM32.7821 32V19.04H34.5581V32H32.7821ZM41.3109 32.144C40.5642 32.144 39.9402 31.984 39.4389 31.664C38.9482 31.344 38.5749 30.9013 38.3189 30.336C38.0629 29.7707 37.9135 29.1147 37.8709 28.368L39.4709 27.936C39.5029 28.3947 39.5722 28.8373 39.6789 29.264C39.7962 29.6907 39.9829 30.0427 40.2389 30.32C40.4949 30.5867 40.8522 30.72 41.3109 30.72C41.7802 30.72 42.1322 30.592 42.3669 30.336C42.6122 30.0693 42.7349 29.6907 42.7349 29.2C42.7349 28.6133 42.6015 28.144 42.3349 27.792C42.0682 27.4293 41.7322 27.0667 41.3269 26.704L39.1509 24.784C38.7242 24.4107 38.4095 24.0053 38.2069 23.568C38.0042 23.12 37.9029 22.5707 37.9029 21.92C37.9029 20.9707 38.1749 20.2347 38.7189 19.712C39.2629 19.1893 40.0042 18.928 40.9429 18.928C41.4549 18.928 41.9029 18.9973 42.2869 19.136C42.6815 19.264 43.0069 19.4667 43.2629 19.744C43.5295 20.0213 43.7375 20.3733 43.8869 20.8C44.0469 21.216 44.1535 21.7067 44.2069 22.272L42.6709 22.688C42.6389 22.2613 42.5749 21.872 42.4789 21.52C42.3829 21.1573 42.2122 20.8693 41.9669 20.656C41.7322 20.432 41.3909 20.32 40.9429 20.32C40.4949 20.32 40.1429 20.4427 39.8869 20.688C39.6415 20.9227 39.5189 21.2747 39.5189 21.744C39.5189 22.1387 39.5829 22.464 39.7109 22.72C39.8495 22.976 40.0682 23.2373 40.3669 23.504L42.5589 25.424C43.0495 25.8507 43.4815 26.3627 43.8549 26.96C44.2282 27.5467 44.4149 28.2453 44.4149 29.056C44.4149 29.696 44.2815 30.2507 44.0149 30.72C43.7482 31.1787 43.3802 31.5307 42.9109 31.776C42.4522 32.0213 41.9189 32.144 41.3109 32.144ZM47.5134 32V19.04H49.2894V32H47.5134ZM54.4101 32V20.384H52.2181V19.04H58.3461V20.384H56.2181V32H54.4101ZM68.1317 32L66.0197 19.04H67.5237L68.9157 28.352L70.6597 19.088H71.9397L73.6997 28.4L75.0597 19.04H76.5317L74.4517 32H73.1397L71.3317 22.4L69.5077 32H68.1317ZM79.708 32V19.04H84.732V20.384H81.516V24.672H84.124V25.952H81.516V30.704H84.764V32H79.708ZM87.8236 32V19.04H90.7996C91.3863 19.04 91.893 19.104 92.3196 19.232C92.757 19.36 93.1196 19.5573 93.4076 19.824C93.6956 20.0907 93.909 20.432 94.0476 20.848C94.1863 21.2533 94.2556 21.7333 94.2556 22.288C94.2556 22.8213 94.1863 23.2853 94.0476 23.68C93.9196 24.064 93.717 24.368 93.4396 24.592C93.173 24.816 92.8263 24.96 92.3996 25.024C92.9223 25.1413 93.3436 25.344 93.6636 25.632C93.9836 25.9093 94.2183 26.272 94.3676 26.72C94.5276 27.1573 94.6076 27.6853 94.6076 28.304C94.6076 28.8587 94.5436 29.3653 94.4156 29.824C94.2876 30.2827 94.085 30.672 93.8076 30.992C93.541 31.312 93.1943 31.5627 92.7676 31.744C92.3516 31.9147 91.8556 32 91.2796 32H87.8236ZM89.6316 30.704H90.8476C91.6583 30.704 92.197 30.5173 92.4636 30.144C92.741 29.76 92.8796 29.1467 92.8796 28.304C92.8796 27.76 92.805 27.3067 92.6556 26.944C92.517 26.5707 92.2876 26.2933 91.9676 26.112C91.6583 25.92 91.237 25.824 90.7036 25.824H89.6316V30.704ZM89.6316 24.448H90.7036C91.2156 24.448 91.6156 24.3787 91.9036 24.24C92.1916 24.0907 92.3943 23.856 92.5116 23.536C92.629 23.216 92.6876 22.8 92.6876 22.288C92.6876 21.6907 92.597 21.2587 92.4156 20.992C92.2343 20.7253 91.9516 20.56 91.5676 20.496C91.1836 20.4213 90.6823 20.384 90.0636 20.384H89.6316V24.448ZM97.9103 32V19.04H99.6863V32H97.9103ZM106.439 32.144C105.692 32.144 105.068 31.984 104.567 31.664C104.076 31.344 103.703 30.9013 103.447 30.336C103.191 29.7707 103.042 29.1147 102.999 28.368L104.599 27.936C104.631 28.3947 104.7 28.8373 104.807 29.264C104.924 29.6907 105.111 30.0427 105.367 30.32C105.623 30.5867 105.98 30.72 106.439 30.72C106.908 30.72 107.26 30.592 107.495 30.336C107.74 30.0693 107.863 29.6907 107.863 29.2C107.863 28.6133 107.73 28.144 107.463 27.792C107.196 27.4293 106.86 27.0667 106.455 26.704L104.279 24.784C103.852 24.4107 103.538 24.0053 103.335 23.568C103.132 23.12 103.031 22.5707 103.031 21.92C103.031 20.9707 103.303 20.2347 103.847 19.712C104.391 19.1893 105.132 18.928 106.071 18.928C106.583 18.928 107.031 18.9973 107.415 19.136C107.81 19.264 108.135 19.4667 108.391 19.744C108.658 20.0213 108.866 20.3733 109.015 20.8C109.175 21.216 109.282 21.7067 109.335 22.272L107.799 22.688C107.767 22.2613 107.703 21.872 107.607 21.52C107.511 21.1573 107.34 20.8693 107.095 20.656C106.86 20.432 106.519 20.32 106.071 20.32C105.623 20.32 105.271 20.4427 105.015 20.688C104.77 20.9227 104.647 21.2747 104.647 21.744C104.647 22.1387 104.711 22.464 104.839 22.72C104.978 22.976 105.196 23.2373 105.495 23.504L107.687 25.424C108.178 25.8507 108.61 26.3627 108.983 26.96C109.356 27.5467 109.543 28.2453 109.543 29.056C109.543 29.696 109.41 30.2507 109.143 30.72C108.876 31.1787 108.508 31.5307 108.039 31.776C107.58 32.0213 107.047 32.144 106.439 32.144ZM113.969 32V20.384H111.777V19.04H117.905V20.384H115.777V32H113.969ZM120.755 32V19.04H125.779V20.384H122.563V24.672H125.171V25.952H122.563V30.704H125.811V32H120.755Z" fill="#FF5733"/>
</svg>
