<?xml version="1.0" encoding="UTF-8"?>
<svg id="Laag_1" data-name="Laag 1" xmlns="http://www.w3.org/2000/svg" viewBox="0 0 73.64 58.37">
  <defs>
    <style>
      .cls-1 {
        stroke: #f1e8a7;
        stroke-width: 1.5px;
      }

      .cls-1, .cls-2, .cls-3, .cls-4 {
        fill: none;
      }

      .cls-1, .cls-3, .cls-4 {
        stroke-miterlimit: 10;
      }

      .cls-1, .cls-4 {
        stroke-linecap: round;
      }

      .cls-2, .cls-5 {
        stroke-width: 0px;
      }

      .cls-5 {
        fill: #f1e9a8;
      }

      .cls-3, .cls-4 {
        stroke: #f1e9a8;
        stroke-width: 1.2px;
      }
    </style>
  </defs>
  <line class="cls-4" x1="31.08" y1="29.63" x2="39.9" y2="29.63"/>
  <line class="cls-4" x1="63.66" y1="29.63" x2="69.46" y2="29.63"/>
  <line class="cls-4" x1=".6" y1="29.63" x2="24.52" y2="29.63"/>
  <circle class="cls-3" cx="27.75" cy="29.43" r="3.23"/>
  <g>
    <path class="cls-2" d="m44.14,34.14c.39.1.8.17,1.22.17,2.68,0,4.86-2.18,4.86-4.86s-2.18-4.86-4.86-4.86c-.45,0-.88.08-1.3.2.41,1.54.65,3.16.65,4.83,0,1.56-.21,3.07-.57,4.52Z"/>
    <path class="cls-2" d="m42.94,25.27c-1.45.84-2.44,2.39-2.44,4.19s1.02,3.4,2.52,4.23c.31-1.31.49-2.66.49-4.06,0-1.51-.21-2.96-.57-4.36Z"/>
    <path class="cls-2" d="m39.3,29.46c0-2.35,1.34-4.38,3.3-5.39-2.34-7.03-8.96-12.11-16.76-12.11-9.74,0-17.67,7.92-17.67,17.67s7.93,17.67,17.67,17.67c7.91,0,14.62-5.22,16.86-12.4-2.01-.99-3.4-3.05-3.4-5.44Z"/>
    <path class="cls-5" d="m25.84,47.29c-9.74,0-17.67-7.92-17.67-17.67s7.93-17.67,17.67-17.67c7.8,0,14.42,5.09,16.76,12.11.35-.18.73-.33,1.12-.44-2.51-7.47-9.57-12.87-17.87-12.87-10.4,0-18.87,8.46-18.87,18.87s8.46,18.87,18.87,18.87c8.42,0,15.57-5.55,17.99-13.18-.39-.1-.77-.24-1.12-.42-2.25,7.18-8.96,12.4-16.86,12.4Z"/>
    <path class="cls-5" d="m40.5,29.46c0-1.79.99-3.35,2.44-4.19-.1-.4-.21-.81-.34-1.2-1.96,1.01-3.3,3.04-3.3,5.39s1.39,4.45,3.4,5.44c.12-.39.22-.8.31-1.21-1.49-.83-2.52-2.4-2.52-4.23Z"/>
    <path class="cls-5" d="m45.36,23.4c-.57,0-1.12.08-1.64.23.13.38.24.77.34,1.17.42-.12.85-.2,1.3-.2,2.68,0,4.86,2.18,4.86,4.86s-2.18,4.86-4.86,4.86c-.42,0-.83-.07-1.22-.17-.1.39-.19.79-.31,1.17.49.13,1,.2,1.53.2,3.34,0,6.06-2.72,6.06-6.06s-2.72-6.06-6.06-6.06Z"/>
    <path class="cls-5" d="m43.01,33.69c-.1.41-.19.81-.31,1.21.36.17.73.32,1.12.42.12-.38.21-.78.31-1.17-.4-.1-.77-.26-1.12-.45Z"/>
    <path class="cls-5" d="m42.94,25.27c.35-.2.72-.36,1.12-.47-.1-.39-.21-.78-.34-1.17-.39.11-.76.26-1.12.44.13.39.24.79.34,1.2Z"/>
  </g>
  <circle class="cls-3" cx="27.75" cy="29.43" r="3.23"/>
  <line class="cls-1" x1="51.27" y1="29.63" x2="59.64" y2="29.63"/>
  <circle class="cls-3" cx="61.53" cy="29.63" r="1.6"/>
  <circle class="cls-3" cx="44.45" cy="29.18" r="28.58"/>
  <path class="cls-4" d="m30.97,8.18s13.39-8.81,27.41.62,11.36,24.39,9.81,28.55-11.86,25.08-36.62,13.53"/>
</svg>