<svg width="30" height="31" viewBox="0 0 30 31" fill="none" xmlns="http://www.w3.org/2000/svg">
<path d="M23.0127 9.72171C24.1935 9.72171 25.1508 8.76443 25.1508 7.58356C25.1508 6.40269 24.1935 5.4454 23.0127 5.4454C21.8318 5.4454 20.8745 6.40269 20.8745 7.58356C20.8745 8.76443 21.8318 9.72171 23.0127 9.72171Z" stroke="#F1E9A8" stroke-width="2" stroke-linejoin="round"/>
<path d="M25.018 1.72992H5.11559C2.9397 1.72992 1.17578 3.49383 1.17578 5.66973V25.5721C1.17578 27.748 2.9397 29.5119 5.11559 29.5119H25.018C27.1938 29.5119 28.9578 27.748 28.9578 25.5721V5.66973C28.9578 3.49383 27.1938 1.72992 25.018 1.72992Z" stroke="#F1E9A8" stroke-width="2" stroke-linejoin="round"/>
<path d="M15.0701 20.6719C17.8578 20.6719 20.1176 18.4121 20.1176 15.6244C20.1176 12.8368 17.8578 10.577 15.0701 10.577C12.2825 10.577 10.0227 12.8368 10.0227 15.6244C10.0227 18.4121 12.2825 20.6719 15.0701 20.6719Z" stroke="#F1E9A8" stroke-width="2" stroke-linejoin="round"/>
</svg>
