<svg width="29" height="28" viewBox="0 0 29 28" fill="none" xmlns="http://www.w3.org/2000/svg">
<path d="M5.1126 10.8131H4.84201C3.38688 10.8131 2.20728 11.9725 2.20728 13.4027V24.3066C2.20728 25.7368 3.38688 26.8962 4.84201 26.8962H5.1126C6.56772 26.8962 7.74733 25.7368 7.74733 24.3066V13.4027C7.74733 11.9725 6.56772 10.8131 5.1126 10.8131Z" stroke="#F1E9A8" stroke-width="2" stroke-linejoin="round"/>
<path d="M5.20526 7.69873C7.08119 7.69873 8.60193 6.20409 8.60193 4.36035C8.60193 2.51662 7.08119 1.02197 5.20526 1.02197C3.32933 1.02197 1.80859 2.51662 1.80859 4.36035C1.80859 6.20409 3.32933 7.69873 5.20526 7.69873Z" stroke="#F1E9A8" stroke-width="2" stroke-linejoin="round"/>
<path d="M11.3149 13.3397V24.3066C11.3149 25.7344 12.497 26.8962 13.9497 26.8962H14.2203C15.6729 26.8962 16.855 25.7344 16.855 24.3066V17.9028C16.855 17.2869 17.0686 16.6921 17.4816 16.2301C17.9445 15.7052 18.6779 15.1313 19.7603 14.9634C21.8752 14.6414 21.8752 16.972 21.8752 18.8547V24.3066C21.8752 25.7344 23.0573 26.8962 24.51 26.8962H25.1224C26.5537 26.8962 27.7215 25.7764 27.7571 24.3696C27.8141 21.9061 27.8639 18.2458 27.6788 16.2581C27.3868 13.0947 25.8344 10.0293 20.9495 10.8132C16.0646 11.59 16.5915 13.2767 16.5915 13.2767L16.5702 13.0807C16.4349 11.73 15.2599 10.7152 13.8856 10.7502C12.4543 10.7852 11.3149 11.9329 11.3149 13.3397Z" stroke="#F1E9A8" stroke-width="2" stroke-linecap="round" stroke-linejoin="round"/>
</svg>
